<?xml version="1.0" encoding="UTF-8" standalone="no"?>
<!-- Created with Inkscape (http://www.inkscape.org/) -->
<svg
   xmlns:dc="http://purl.org/dc/elements/1.1/"
   xmlns:cc="http://web.resource.org/cc/"
   xmlns:rdf="http://www.w3.org/1999/02/22-rdf-syntax-ns#"
   xmlns:svg="http://www.w3.org/2000/svg"
   xmlns="http://www.w3.org/2000/svg"
   xmlns:sodipodi="http://sodipodi.sourceforge.net/DTD/sodipodi-0.dtd"
   xmlns:inkscape="http://www.inkscape.org/namespaces/inkscape"
   id="svg2"
   sodipodi:version="0.32"
   inkscape:version="0.44"
   width="149.15508"
   height="152.48689"
   version="1.0"
   sodipodi:docbase="/home/peter/wikiplaatjes"
   sodipodi:docname="VOC.svg">
  <metadata
     id="metadata7">
    <rdf:RDF>
      <cc:Work
         rdf:about="">
        <dc:format>image/svg+xml</dc:format>
        <dc:type
           rdf:resource="http://purl.org/dc/dcmitype/StillImage" />
        <dc:title>VOC</dc:title>
        <dc:date>26-6-2006</dc:date>
        <dc:creator>
          <cc:Agent>
            <dc:title>Peter van Ham</dc:title>
          </cc:Agent>
        </dc:creator>
        <dc:rights>
          <cc:Agent>
            <dc:title />
          </cc:Agent>
        </dc:rights>
        <dc:subject>
          <rdf:Bag>
            <rdf:li>VOC</rdf:li>
          </rdf:Bag>
        </dc:subject>
        <cc:license
           rdf:resource="http://web.resource.org/cc/PublicDomain" />
        <dc:description>Het VOC-logo.</dc:description>
      </cc:Work>
      <cc:License
         rdf:about="http://web.resource.org/cc/PublicDomain">
        <cc:permits
           rdf:resource="http://web.resource.org/cc/Reproduction" />
        <cc:permits
           rdf:resource="http://web.resource.org/cc/Distribution" />
        <cc:permits
           rdf:resource="http://web.resource.org/cc/DerivativeWorks" />
      </cc:License>
    </rdf:RDF>
  </metadata>
  <defs
     id="defs5" />
  <sodipodi:namedview
     inkscape:window-height="720"
     inkscape:window-width="1022"
     inkscape:pageshadow="2"
     inkscape:pageopacity="0.0"
     guidetolerance="10.0"
     gridtolerance="10.0"
     objecttolerance="10.0"
     borderopacity="1.0"
     bordercolor="#666666"
     pagecolor="#ffffff"
     id="base"
     inkscape:zoom="3.391216"
     inkscape:cx="87.096537"
     inkscape:cy="68.381178"
     inkscape:window-x="0"
     inkscape:window-y="0"
     inkscape:current-layer="svg2" />
  <path
     style="fill:black"
     d="M 73.230105,152.29347 C 72.961155,152.02452 72.965775,151.21898 73.240375,150.50338 C 73.514975,149.78779 73.258965,148.90523 72.671475,148.54213 C 72.083975,148.17904 71.603295,146.76907 71.603295,145.40886 C 71.603295,144.04866 70.914865,141.28812 70.073455,139.27433 C 68.700335,135.98799 68.700335,135.5252 70.073455,134.75676 C 72.221235,133.55481 71.985135,131.66689 69.759815,132.24882 C 67.644045,132.80211 66.175835,130.88325 65.153515,126.22864 C 64.766265,124.4655 64.034045,122.76622 63.526365,122.45245 C 63.018675,122.13868 62.603295,121.0652 62.603295,120.06694 C 62.603295,119.06867 61.515125,116.28273 60.185145,113.87595 C 57.831455,109.61666 50.604585,91.815986 50.602015,90.271526 C 50.601305,89.847186 47.563805,89.459516 43.852015,89.410046 C 35.298605,89.296036 29.227986,86.589906 22.490194,79.887486 C 16.035198,73.466376 13.53484,67.613446 12.997625,57.666936 C 12.603726,50.373926 12.793881,49.422376 15.755641,43.86555 C 19.004983,37.76916 24.044363,32.53653 25.687969,33.55233 C 27.376592,34.59596 26.550196,32.53924 23.055216,27 C 21.146595,23.975 19.32835,20.77644 19.014672,19.892089 C 18.584734,18.679968 16.545018,18.137712 10.728264,17.689156 C 6.4844192,17.361894 2.2451182,16.799784 1.3075932,16.440022 C -0.80206884,15.630469 -0.28065084,11.634233 2.3078382,8.773985 C 4.1401662,6.749285 6.1939062,6.704182 16.603296,8.460035 C 19.883508,9.01334 33.086352,9.135075 42.103295,8.695153 C 45.566295,8.526199 46.146385,8.803512 46.424265,10.760807 C 46.685225,12.598965 46.155055,13.139648 43.588315,13.652996 C 39.610915,14.448477 39.047133,15.941927 40.612985,21.534611 L 41.863215,26 L 47.168155,26 C 53.269645,26 56.570545,27.05714 61.883145,30.71257 C 70.508765,36.6476 75.827035,48.014816 75.853135,60.571896 C 75.870755,69.050426 74.323155,73.101416 69.145045,78.130896 L 65.660065,81.515846 L 70.640715,94.507926 C 73.380065,101.65357 76.375795,109.075 77.297895,111 C 78.219985,112.925 79.024075,116.18565 79.084755,118.24589 C 79.145435,120.30613 79.712805,122.5095 80.345565,123.14227 C 81.648025,124.44473 82.716375,122.38835 87.173315,110 C 90.307775,101.28758 91.434685,98.535766 94.993635,90.903506 C 96.428945,87.825436 97.603295,85.011946 97.603295,84.651316 C 97.603295,84.290686 96.084655,82.534106 94.228535,80.747806 C 92.372415,78.961516 89.597735,75.478136 88.062575,73.006976 C 85.667705,69.151916 85.216205,67.235056 84.882795,59.506976 C 84.327235,46.629646 86.423565,40.16554 93.398015,33.25 C 96.310115,30.3625 99.389135,28 100.24028,28 C 101.09143,28 102.97661,27.0649 104.42957,25.92201 C 106.7318,24.111073 107.90933,23.928178 113.5921,24.498877 L 120.1129,25.153735 L 121.24826,20.326867 C 122.07433,16.814934 122.08421,15.131096 121.28455,14.145824 C 120.07111,12.65073 115.94018,10.740617 113.60329,10.594067 C 112.77829,10.54233 112.10329,9.647565 112.10329,8.6057 C 112.10329,6.920765 113.04274,6.675382 120.60329,6.385519 C 131.01338,5.986407 132.96132,5.669349 138.35126,3.496752 C 140.68764,2.554994 143.2379,2.029546 144.0185,2.32909 C 144.7991,2.628634 145.68589,2.227129 145.98915,1.436858 C 146.2924,0.646586 147.27383,-1.4210855e-14 148.17011,-1.4210855e-14 C 149.58107,-1.4210855e-14 149.51884,0.436012 147.70625,3.25 C 146.55486,5.0375 145.1133,6.371711 144.50279,6.214913 C 143.89228,6.058116 142.73084,6.47918 141.92181,7.150611 C 140.75042,8.122786 140.26585,8.079019 139.54239,6.935698 C 138.78638,5.74095 138.63135,5.779713 138.6186,7.166667 C 138.61018,8.083333 139.16579,9.041879 139.85329,9.296769 C 141.72929,9.992294 138.68865,12.805842 135.60329,13.229349 C 132.54159,13.649608 127.60554,16.815906 127.59713,18.36501 C 127.59374,18.989254 126.92113,20.784335 126.10244,22.354078 C 123.94047,26.49938 125.02703,27.33003 131.80715,26.71523 L 137.73667,26.17756 L 137.23245,35.33878 C 136.95513,40.37745 136.70012,44.62833 136.66576,44.78518 C 136.6314,44.94204 135.7086,44.59155 134.6151,44.00632 C 133.52159,43.42109 132.33344,41.71776 131.97476,40.22114 C 130.57835,34.39451 126.83909,29.08766 124.10329,29.04975 C 123.55329,29.04212 122.00698,32.51531 120.66705,36.76794 C 118.67968,43.07543 114.35059,54.667236 108.06946,70.499996 C 107.63307,71.599996 107.23716,72.739576 107.18966,73.032396 C 107.14215,73.325206 106.24002,75.479176 105.18492,77.818976 C 104.01811,80.406496 102.98605,81.619316 102.55057,80.914696 C 102.15679,80.277536 101.22005,79.963536 100.46894,80.216916 C 99.624865,80.501656 100.41077,81.356106 102.52676,82.454186 C 106.53629,84.534896 113.77347,84.755536 119.23866,82.963676 C 123.58395,81.538986 129.60329,77.318096 129.60329,75.695756 C 129.60329,73.360186 133.67123,70.290326 136.14062,70.762386 C 139.03192,71.315086 139.30415,72.507156 136.85329,73.883056 C 135.36983,74.715856 135.33176,74.953576 136.60329,75.443806 C 137.50703,75.792226 138.10329,77.304156 138.10329,79.247356 C 138.10329,81.682176 137.61314,82.563606 136.10329,82.843906 C 135.00329,83.048126 133.65329,83.556576 133.10329,83.973786 C 128.48728,87.475376 121.58909,90.231706 117.3518,90.267666 C 114.72629,90.289946 112.2838,90.013836 111.92405,89.654086 C 111.5643,89.294336 110.01732,88.999996 108.48631,88.999996 C 106.87805,88.999996 105.28574,88.261066 104.71526,87.249996 C 103.33988,84.812396 102.4666,86.064416 98.612185,95.999996 C 94.437975,106.75991 92.672695,111.04969 91.519225,113.23643 C 91.015465,114.19147 90.603295,115.46111 90.603295,116.05786 C 90.603295,116.65461 89.928295,117.81786 89.103295,118.64286 C 88.278295,119.46786 87.603295,121.01071 87.603295,122.07143 C 87.603295,123.1559 86.917285,124 86.035905,124 C 84.899025,124 84.651475,124.57644 85.134635,126.09872 C 85.701545,127.88491 85.488205,128.09825 83.702015,127.53133 C 82.465165,127.13877 81.603295,127.30356 81.603295,127.93261 C 81.603295,128.51968 82.278295,129 83.103295,129 C 84.767375,129 85.049895,130.09682 83.760125,131.55 C 82.837795,132.58918 79.805655,142.21154 79.316235,145.65247 C 79.147845,146.83633 78.472455,148.45273 77.815365,149.24448 C 77.158265,150.03623 76.859595,150.92296 77.151635,151.21501 C 77.443675,151.50705 76.790835,151.9792 75.700865,152.26423 C 74.610895,152.54927 73.499055,152.56242 73.230105,152.29347 z M 43.139105,70.420406 C 40.089245,63.314176 36.974018,56.149996 36.216388,54.499996 C 31.576292,44.3946 29.660677,39.01404 30.201356,37.60506 C 31.063204,35.35912 28.333376,35.53579 26.227997,37.86221 C 23.049506,41.3744 22.519924,45.817086 24.105323,55.669426 C 24.922844,60.749846 26.48873,66.390076 27.585069,68.203276 C 28.681408,70.016466 29.990768,72.399996 30.494759,73.499996 C 32.799174,78.529566 47.629595,87.671626 48.393805,84.533676 C 48.553585,83.877596 46.188965,77.526626 43.139105,70.420406 z M 101.56932,72.941686 C 102.64148,69.948756 104.48158,65.024996 105.65843,61.999996 C 106.83527,58.974996 109.05879,53.124996 110.59959,48.999996 C 112.14038,44.875 114.56714,39.025 115.99239,36 C 117.41764,32.975 118.58815,29.65133 118.59352,28.61408 C 118.60218,26.94329 118.07068,26.80115 113.93426,27.36811 C 104.8454,28.61388 96.389685,35.976 92.739595,45.821596 C 90.445645,52.009206 90.505445,63.659016 92.863675,69.995596 C 95.430385,76.892326 97.642215,80.361076 98.760265,79.243026 C 99.233075,78.770216 100.49715,75.934606 101.56932,72.941686 z M 67.917835,71.909036 C 71.123555,61.287326 70.395725,55.395986 64.456655,43.89288 C 59.976745,35.21592 54.116555,30.14678 47.546755,29.26559 C 45.377855,28.97468 43.603295,29.00861 43.603295,29.341 C 43.603295,29.67338 44.700345,32.32013 46.041165,35.22267 C 47.381995,38.1252 51.727065,48.599996 55.696865,58.499996 C 59.666665,68.399996 63.365545,77.081566 63.916605,77.792376 C 65.252695,79.515796 65.916725,78.539426 67.917835,71.909036 z "
     id="path7569"
     sodipodi:nodetypes="cssssssssssssssssssssssssscccsscccsssssssssssscccssssssssssssssssscccssssssssssssssssssssssssssssssssssssssccsssssssccssssssssccssssssc" />
</svg>
